<!-- Generated by IcoMoon.io -->
<svg version="1.1" xmlns="http://www.w3.org/2000/svg" width="32" height="32" viewBox="0 0 32 32">
<title>instagram</title>
<path d="M16 2.881c4.275 0 4.781 0.019 6.462 0.094 1.563 0.069 2.406 0.331 2.969 0.55 0.72 0.27 1.334 0.677 1.836 1.193l0.001 0.001c0.518 0.504 0.926 1.118 1.188 1.804l0.012 0.034c0.219 0.563 0.481 1.412 0.55 2.969 0.075 1.688 0.094 2.194 0.094 6.463s-0.019 4.781-0.094 6.463c-0.069 1.563-0.331 2.406-0.55 2.969-0.27 0.72-0.677 1.334-1.193 1.836l-0.001 0.001c-0.504 0.517-1.117 0.926-1.803 1.188l-0.034 0.012c-0.563 0.219-1.413 0.481-2.969 0.55-1.688 0.075-2.194 0.094-6.463 0.094s-4.781-0.019-6.463-0.094c-1.563-0.069-2.406-0.331-2.969-0.55-0.721-0.27-1.335-0.677-1.837-1.193l-0.001-0.001c-0.517-0.504-0.926-1.117-1.188-1.803l-0.012-0.034c-0.219-0.563-0.481-1.413-0.55-2.969-0.075-1.688-0.094-2.194-0.094-6.463s0.019-4.781 0.094-6.463c0.069-1.563 0.331-2.406 0.55-2.969 0.27-0.721 0.677-1.334 1.193-1.837l0.001-0.001c0.504-0.518 1.118-0.926 1.804-1.188l0.034-0.012c0.563-0.219 1.412-0.481 2.969-0.55 1.681-0.075 2.188-0.094 6.463-0.094zM16 0c-4.344 0-4.887 0.019-6.594 0.094-1.7 0.075-2.869 0.35-3.881 0.744-1.056 0.412-1.95 0.956-2.837 1.85-0.795 0.778-1.424 1.723-1.832 2.777l-0.018 0.054c-0.394 1.019-0.669 2.181-0.744 3.881-0.075 1.713-0.094 2.256-0.094 6.6s0.019 4.887 0.094 6.594c0.075 1.7 0.35 2.869 0.744 3.881 0.413 1.056 0.956 1.95 1.85 2.837 0.778 0.793 1.723 1.421 2.778 1.826l0.053 0.018c1.019 0.394 2.181 0.669 3.881 0.744 1.706 0.075 2.25 0.094 6.594 0.094s4.888-0.019 6.594-0.094c1.7-0.075 2.869-0.35 3.881-0.744 1.050-0.406 1.944-0.956 2.831-1.844s1.438-1.781 1.844-2.831c0.394-1.019 0.669-2.181 0.744-3.881 0.075-1.706 0.094-2.25 0.094-6.594s-0.019-4.887-0.094-6.594c-0.075-1.7-0.35-2.869-0.744-3.881-0.408-1.116-1.033-2.067-1.829-2.842l-0.002-0.002c-0.778-0.793-1.723-1.421-2.777-1.826l-0.053-0.018c-1.019-0.394-2.181-0.669-3.881-0.744-1.712-0.081-2.256-0.1-6.6-0.1z"></path>
<path d="M16 7.781c-4.537 0-8.219 3.681-8.219 8.219s3.681 8.219 8.219 8.219 8.219-3.681 8.219-8.219c-0.001-4.539-3.68-8.218-8.219-8.219h-0zM16 21.331c-2.944 0-5.332-2.387-5.332-5.332s2.387-5.332 5.332-5.332v0c2.945 0 5.331 2.387 5.331 5.332s-2.387 5.332-5.332 5.332v0zM26.462 7.456c0 1.060-0.859 1.919-1.919 1.919s-1.919-0.859-1.919-1.919v0c0-1.060 0.859-1.919 1.919-1.919s1.919 0.859 1.919 1.919v0z"></path>
</svg>
