<!-- Generated by IcoMoon.io -->
<svg version="1.1" xmlns="http://www.w3.org/2000/svg" width="32" height="32" viewBox="0 0 32 32">
<title>mail-_1</title>
<path d="M1.206 5.4c-0.588 0.188-1.006 0.612-1.144 1.169-0.044 0.194-0.063 3.050-0.050 9.587l0.019 9.313 0.188 0.337c0.106 0.188 0.3 0.419 0.431 0.519 0.537 0.387-0.506 0.363 15.35 0.363s14.813 0.025 15.35-0.363c0.131-0.1 0.331-0.331 0.431-0.519l0.188-0.337v-18.938l-0.188-0.338c-0.1-0.188-0.3-0.419-0.431-0.519-0.538-0.388 0.512-0.362-15.375-0.356-11.75 0-14.556 0.019-14.769 0.081zM29.625 6.65c-0.050 0.044-2.969 2.237-6.481 4.869-4.281 3.213-6.463 4.806-6.625 4.85-0.306 0.087-0.731 0.087-1.037 0-0.162-0.044-2.344-1.637-6.625-4.85-3.513-2.631-6.431-4.825-6.481-4.869-0.075-0.075 1.962-0.088 13.625-0.088s13.7 0.013 13.625 0.088zM8 12.406c3.625 2.719 6.713 4.994 6.863 5.050 0.15 0.063 0.463 0.144 0.7 0.181 0.525 0.087 1.169 0 1.656-0.225 0.169-0.081 3.281-2.375 6.906-5.094l6.594-4.95 0.019 4.281c0.006 2.356 0.006 6.212 0 8.563l-0.019 4.281-3.469-4.281c-1.906-2.356-3.512-4.313-3.569-4.344-0.169-0.088-0.481-0.069-0.65 0.044-0.175 0.119-0.294 0.419-0.244 0.631 0.025 0.087 1.625 2.119 3.563 4.512l3.525 4.35-6.938 0.019c-3.819 0.006-10.056 0.006-13.875 0l-6.938-0.019 3.525-4.35c1.938-2.394 3.537-4.425 3.563-4.512 0.050-0.212-0.069-0.512-0.244-0.631-0.156-0.1-0.444-0.131-0.625-0.063-0.050 0.025-1.65 1.956-3.544 4.3-1.894 2.337-3.469 4.281-3.494 4.313-0.031 0.038-0.056-3.65-0.056-8.519 0-6.844 0.019-8.569 0.081-8.531 0.038 0.031 3.044 2.275 6.669 4.994z"></path>
</svg>
